<?xml version="1.0" encoding="UTF-8"?>
<svg version="1.1" xmlns="http://www.w3.org/2000/svg" width="512" height="512">
<path d="M0 0 C1.1074267 -0.00538554 2.2148534 -0.01077108 3.35583848 -0.01631981 C7.0499368 -0.03057615 10.74367564 -0.02350131 14.43778992 -0.01637268 C17.09270351 -0.02207724 19.74759168 -0.02894152 22.40249634 -0.03717041 C28.85364657 -0.05432483 35.30469927 -0.05520594 41.75586639 -0.04995751 C46.99780918 -0.0459106 52.23972323 -0.04736551 57.48166466 -0.05270576 C58.60212451 -0.0538284 58.60212451 -0.0538284 59.74521991 -0.05497371 C61.26277319 -0.05650521 62.78032646 -0.05804356 64.29787972 -0.05958868 C78.51137857 -0.07329995 92.7248223 -0.06788425 106.93831988 -0.05640347 C119.94575131 -0.04645833 132.95304074 -0.05943622 145.96045027 -0.08333766 C159.32203594 -0.10770489 172.6835554 -0.11734327 186.04516286 -0.11068493 C193.54470052 -0.10718924 201.0441288 -0.10944856 208.54364967 -0.12693596 C214.92310942 -0.14162767 221.30238263 -0.14233261 227.68183861 -0.12486505 C230.93713626 -0.11633003 234.19203015 -0.11641918 237.44732285 -0.1295166 C240.97309479 -0.14262312 244.49795004 -0.13127032 248.02368164 -0.11352539 C249.05644724 -0.1231304 250.08921283 -0.1327354 251.15327436 -0.14263147 C258.03087583 -0.07104744 258.03087583 -0.07104744 261.36130047 2.23150539 C262.69438171 4.38768005 262.69438171 4.38768005 262.69438171 7.38768005 C267.31438171 7.38768005 271.93438171 7.38768005 276.69438171 7.38768005 C277.35438171 5.73768005 278.01438171 4.08768005 278.69438171 2.38768005 C281.39862098 -0.31655922 282.82220807 0.12346454 286.60600281 0.09715271 C288.46966995 0.07801315 288.46966995 0.07801315 290.37098694 0.05848694 C291.73659612 0.05542671 293.10220738 0.05320033 294.46781921 0.05174255 C295.87111039 0.04531225 297.27440022 0.03858371 298.6776886 0.03157043 C301.62843421 0.01957391 304.57906265 0.01589128 307.52983093 0.01707458 C311.27978426 0.01727621 315.02896622 -0.00984977 318.77873802 -0.04446983 C321.68388687 -0.06692175 324.58885675 -0.07075719 327.4940834 -0.06970596 C328.87415308 -0.07204132 330.25422929 -0.08074612 331.63421249 -0.0963707 C345.89452866 -0.24250906 356.92326542 2.82624297 367.69438171 12.38768005 C376.91633977 21.59390098 381.36561056 33.02852583 381.82088155 45.98876071 C381.82193818 47.92607306 381.82193818 47.92607306 381.82301617 49.90252304 C381.8247692 50.62992833 381.82652224 51.35733361 381.8283284 52.10678148 C381.83297269 54.53919905 381.83052696 56.97155643 381.82809448 59.40397644 C381.82996325 61.16759326 381.83226421 62.93120966 381.83495981 64.69482541 C381.84107613 69.53765153 381.8409444 74.38046039 381.83976543 79.22328949 C381.83956138 84.44769558 381.84508059 89.67209613 381.849823 94.89649963 C381.85812923 105.13088521 381.86087783 115.36526503 381.86143538 125.59965369 C381.86191056 133.91890194 381.8639654 142.23814829 381.867136 150.55739594 C381.87594256 174.14477972 381.88055538 197.73215896 381.87980553 221.3195444 C381.87974559 223.22692389 381.87974559 223.22692389 381.87968445 225.1728363 C381.87964357 226.4459755 381.87960269 227.7191147 381.87956057 229.03083387 C381.87915411 249.66411792 381.88872352 270.29738371 381.90282281 290.93066248 C381.91718614 312.11754101 381.92409302 333.30441063 381.92322904 354.49129415 C381.92289705 366.3857877 381.92564493 378.28026212 381.93640709 390.17475128 C381.94551151 400.30198532 381.94768781 410.42919156 381.94089767 420.55642793 C381.93763216 425.72228851 381.93757692 430.88809575 381.94625092 436.05395126 C381.95411542 440.78642842 381.95268494 445.51880992 381.94396678 450.25128475 C381.94243169 451.95987407 381.94424829 453.66847054 381.94982686 455.37705144 C382.00214583 472.54318466 380.36217772 487.33205034 367.95610046 500.3525238 C357.74497701 509.54077134 347.05135487 512.85472748 333.53425598 512.78208923 C332.45455973 512.78818034 331.37486347 512.79427144 330.26244915 512.80054712 C326.66819925 512.81710966 323.07430623 512.81241097 319.48002625 512.80760193 C316.89393752 512.81494577 314.30785207 512.82353291 311.72177124 512.83326721 C305.44255088 512.85425012 299.16342298 512.85886643 292.88417168 512.85707933 C287.78193493 512.85576914 282.67972692 512.85958883 277.57749557 512.86700439 C276.10516735 512.86910365 274.63283913 512.87120125 273.1605109 512.87329721 C272.06119168 512.87486251 272.06119168 512.87486251 270.93966399 512.87645942 C257.10338669 512.89532981 243.2671625 512.89432021 229.43087767 512.88749009 C216.76944064 512.8819056 204.10820536 512.90278419 191.44681551 512.93585056 C178.43775943 512.96956104 165.42880013 512.98475997 152.41969955 512.98013353 C145.11911729 512.97788763 137.81872196 512.9831509 130.51817703 513.00802612 C123.66113016 513.03119257 116.80451223 513.02848935 109.94745827 513.0080986 C107.42708702 513.00467377 104.90668778 513.00984044 102.38635445 513.02408218 C98.95460469 513.04214146 95.52430959 513.02962381 92.09260559 513.00914001 C91.08775875 513.02165786 90.08291191 513.03417571 89.04761517 513.04707289 C82.32331929 512.9605929 82.32331929 512.9605929 79.04449272 509.97383881 C77.69438171 507.38768005 77.69438171 507.38768005 77.69438171 505.38768005 C73.07438171 505.38768005 68.45438171 505.38768005 63.69438171 505.38768005 C63.36438171 506.70768005 63.03438171 508.02768005 62.69438171 509.38768005 C61.54762268 511.11143494 61.54762268 511.11143494 59.69438171 512.38768005 C56.72566223 512.78208923 56.72566223 512.78208923 53.04252625 512.80760193 C52.37046646 512.81607147 51.69840668 512.82454102 51.00598145 512.83326721 C48.77952702 512.85669673 46.55376277 512.85765693 44.32719421 512.85643005 C42.77078478 512.86353576 41.21437795 512.87123536 39.65797424 512.87950134 C36.38780973 512.89296527 33.11788653 512.89450987 29.84770203 512.88865662 C25.69079821 512.88280424 21.53508014 512.91315461 17.37840462 512.9537735 C14.15750579 512.97986529 10.93688271 512.98250786 7.71589279 512.97888184 C6.18592767 512.98055783 4.65594764 512.99005115 3.12608719 513.00802612 C-12.29475437 513.1690654 -23.9594819 509.29867244 -35.23530579 498.5478363 C-46.74560369 486.46943356 -47.65279365 472.10700897 -47.30561829 456.38768005 C-47.98366516 456.42248474 -48.66171204 456.45728943 -49.36030579 456.4931488 C-58.85082801 456.76918892 -66.94394234 455.35549857 -74.48139954 449.27049255 C-81.44095884 442.0873928 -83.66116426 434.36319244 -83.68623352 424.6493988 C-83.48778572 415.77808409 -80.38616089 410.06670697 -73.99311829 403.95018005 C-65.32223099 396.91396823 -58.37999837 397.06822678 -47.30561829 397.38768005 C-47.30561829 388.80768005 -47.30561829 380.22768005 -47.30561829 371.38768005 C-50.60561829 371.38768005 -53.90561829 371.38768005 -57.30561829 371.38768005 C-67.22702274 369.65537134 -74.53740058 364.58609118 -80.30561829 356.38768005 C-84.41477318 348.36093925 -84.9526277 339.03875236 -82.42671204 330.37205505 C-78.80188489 322.57209697 -73.09288865 316.31541229 -65.05952454 313.0322113 C-59.20888035 311.6629116 -53.26820656 312.17281201 -47.30561829 312.38768005 C-47.30561829 303.80768005 -47.30561829 295.22768005 -47.30561829 286.38768005 C-49.94561829 286.38768005 -52.58561829 286.38768005 -55.30561829 286.38768005 C-65.54133644 285.39088773 -72.0538363 281.26262493 -78.76264954 273.64549255 C-84.17024842 265.73260102 -84.25953575 257.58162744 -83.30561829 248.38768005 C-81.06001068 240.68275083 -76.05381571 234.1056709 -69.06733704 230.10643005 C-61.57151386 226.57898385 -55.74268718 226.38768005 -47.30561829 226.38768005 C-47.30561829 217.80768005 -47.30561829 209.22768005 -47.30561829 200.38768005 C-49.57436829 200.49080505 -51.84311829 200.59393005 -54.18061829 200.70018005 C-63.2849627 200.84012559 -69.4734651 198.20807819 -76.18061829 192.13768005 C-82.86204506 184.72966786 -84.19438174 177.04674824 -83.75874329 167.27830505 C-82.84925499 159.46925038 -79.41528619 153.36066555 -73.30561829 148.38768005 C-64.64481437 142.00407027 -58.35463319 141.38768005 -47.30561829 141.38768005 C-47.30561829 132.80768005 -47.30561829 124.22768005 -47.30561829 115.38768005 C-50.52311829 115.48049255 -50.52311829 115.48049255 -53.80561829 115.57518005 C-64.29873579 115.5119685 -69.48170607 113.1414418 -77.09468079 105.8212738 C-83.40658724 98.87371599 -84.1654608 91.40510354 -83.76264954 82.27830505 C-83.12124678 76.81815852 -81.3763414 72.89140728 -78.30561829 68.38768005 C-77.70749329 67.45955505 -77.10936829 66.53143005 -76.49311829 65.57518005 C-69.51884566 58.60090743 -61.96978507 56.29980233 -52.30561829 56.26268005 C-50.6387324 56.29438712 -48.97189381 56.33254594 -47.30561829 56.38768005 C-47.35782532 54.86400818 -47.35782532 54.86400818 -47.41108704 53.30955505 C-47.8120031 36.62371352 -44.3730835 24.08442151 -32.76264954 11.68455505 C-23.31473248 2.85247996 -12.63546096 -0.07433321 0 0 Z " fill="#7DB8E6" transform="translate(107.30561828613281,-0.3876800537109375)"/>
<path d="M0 0 C0.99627566 -0.00438225 1.99255133 -0.00876451 3.01901716 -0.01327956 C6.36126708 -0.02664639 9.70349064 -0.0328417 13.04576111 -0.03897095 C15.44079202 -0.0468736 17.83582174 -0.05514265 20.23085022 -0.06375122 C27.42057263 -0.08769067 34.61030024 -0.10289613 41.80004922 -0.11581129 C43.83240604 -0.11952624 45.86476218 -0.12349922 47.89711833 -0.12756395 C60.53118537 -0.15280325 73.16525357 -0.17484552 85.79934025 -0.1872921 C88.72344021 -0.19022155 91.64754014 -0.19318325 94.57164001 -0.19619751 C95.66172809 -0.19731659 95.66172809 -0.19731659 96.77383815 -0.19845827 C108.53779897 -0.21110316 120.30160834 -0.24431714 132.06549842 -0.28599934 C144.15684833 -0.32848888 156.24812085 -0.35199519 168.33954519 -0.35721266 C175.1229316 -0.36061881 181.90608132 -0.37227942 188.689394 -0.4053154 C195.07443145 -0.43543503 201.45905717 -0.44169354 207.84415054 -0.42993164 C210.18217569 -0.42971124 212.52022016 -0.43798869 214.85817909 -0.45558548 C242.03540154 -0.6489327 242.03540154 -0.6489327 252.71739197 9.4859314 C259.04807774 16.71374643 261.4841426 24.00566554 261.445755 33.59072876 C261.45028612 34.42592788 261.45481723 35.26112701 261.45948565 36.1216352 C261.47211854 38.9127203 261.47050999 41.70360998 261.46885681 44.49472046 C261.4748428 46.49906159 261.48164851 48.50340041 261.48921204 50.50773621 C261.50687323 55.94797383 261.51156751 61.38814853 261.51284361 66.82841206 C261.51426583 70.22931128 261.51853682 73.63019453 261.52383804 77.03108978 C261.54233955 88.90162674 261.55050861 100.77211878 261.54893494 112.64266968 C261.54773389 123.69781809 261.56882875 134.75277116 261.60042226 145.80787015 C261.62659916 155.30701655 261.63730162 164.80609922 261.63602412 174.3052814 C261.63551485 179.97519978 261.64117853 185.64494459 261.66238022 191.31482697 C261.68178597 196.6500894 261.68187092 201.98501312 261.66734695 207.3202877 C261.66526059 209.273742 261.66994942 211.22721763 261.68206787 213.18063545 C261.75526864 225.80191911 261.20777264 236.06051201 253.01426697 246.33358765 C245.14612933 254.13476241 235.91990728 256.45811429 225.22294617 256.41459656 C224.22440495 256.4184221 223.22586373 256.42224765 222.19706368 256.42618912 C218.85320019 256.43650264 215.50950894 256.43253003 212.16563416 256.42855835 C209.7672103 256.43290579 207.36878783 256.43808905 204.97036743 256.44404602 C199.13242893 256.45605364 193.29454397 256.45858754 187.45659462 256.45624576 C182.70901106 256.45446118 177.96144145 256.45621523 173.21385956 256.4604702 C172.19946456 256.46136298 172.19946456 256.46136298 171.16457672 256.4622738 C169.79061824 256.46348559 168.41665976 256.46469972 167.04270127 256.46591618 C154.16100659 256.47678941 141.27933809 256.47463058 128.39764193 256.46853133 C116.62596802 256.46336548 104.85437694 256.47460923 93.08271942 256.49362955 C80.98456058 256.51302691 68.8864409 256.52126043 56.78826642 256.5175063 C50.00056308 256.51559673 43.21293019 256.51805768 36.42523956 256.53222084 C30.03943691 256.54480552 23.65379979 256.5428488 17.26799965 256.52980995 C14.92753608 256.52744585 12.58706083 256.53017288 10.24661064 256.53843307 C7.0447651 256.54891624 3.84347332 256.54078675 0.64164734 256.52812195 C-0.27841386 256.53549623 -1.19847506 256.54287052 -2.1464169 256.55046827 C-13.27166061 256.4582757 -21.62157067 253.26964491 -29.54432678 245.4546814 C-36.4147509 237.94279261 -37.97355174 230.018489 -37.96211243 220.02714539 C-37.96508355 219.21321845 -37.96805467 218.39929151 -37.97111583 217.56070012 C-37.9797815 214.83565282 -37.98130928 212.11064957 -37.98280334 209.3855896 C-37.98743305 207.43065803 -37.99245792 205.47572735 -37.99784851 203.52079773 C-38.01096043 198.21067471 -38.0174152 192.90056432 -38.02185917 187.59042764 C-38.02479206 184.27111596 -38.02889729 180.95180773 -38.03336334 177.63249779 C-38.04703556 167.24210034 -38.05670337 156.85171078 -38.06056523 146.46130496 C-38.06504438 134.47664797 -38.08258686 122.49210512 -38.11156583 110.50748283 C-38.13320044 101.237661 -38.14327048 91.96787125 -38.14460635 82.69802445 C-38.14565317 77.1644913 -38.15153476 71.63106549 -38.16942596 66.09755898 C-38.18593718 60.88958197 -38.18804729 55.68179264 -38.17928696 50.47379875 C-38.1785182 48.56710939 -38.18283795 46.66040981 -38.19274521 44.75374603 C-38.26317974 30.34851971 -37.73324393 19.1883918 -27.12245178 8.4312439 C-19.06844595 1.06499587 -10.54405271 0.00564019 0 0 Z " fill="#020203" transform="translate(180.82167053222656,127.84609985351563)"/>
<path d="M0 0 C1.1074267 -0.00538554 2.2148534 -0.01077108 3.35583848 -0.01631981 C7.0499368 -0.03057615 10.74367564 -0.02350131 14.43778992 -0.01637268 C17.09270351 -0.02207724 19.74759168 -0.02894152 22.40249634 -0.03717041 C28.85364657 -0.05432483 35.30469927 -0.05520594 41.75586639 -0.04995751 C46.99780918 -0.0459106 52.23972323 -0.04736551 57.48166466 -0.05270576 C58.60212451 -0.0538284 58.60212451 -0.0538284 59.74521991 -0.05497371 C61.26277319 -0.05650521 62.78032646 -0.05804356 64.29787972 -0.05958868 C78.51137857 -0.07329995 92.7248223 -0.06788425 106.93831988 -0.05640347 C119.94575131 -0.04645833 132.95304074 -0.05943622 145.96045027 -0.08333766 C159.32203594 -0.10770489 172.6835554 -0.11734327 186.04516286 -0.11068493 C193.54470052 -0.10718924 201.0441288 -0.10944856 208.54364967 -0.12693596 C214.92310942 -0.14162767 221.30238263 -0.14233261 227.68183861 -0.12486505 C230.93713626 -0.11633003 234.19203015 -0.11641918 237.44732285 -0.1295166 C240.97309479 -0.14262312 244.49795004 -0.13127032 248.02368164 -0.11352539 C249.05644724 -0.1231304 250.08921283 -0.1327354 251.15327436 -0.14263147 C258.01576479 -0.07120472 258.01576479 -0.07120472 261.36911297 2.19634914 C262.69438171 4.38768005 262.69438171 4.38768005 262.56938171 7.95018005 C261.69438171 11.38768005 261.69438171 11.38768005 259.69438171 14.38768005 C256.8636985 15.33124112 255.14986255 15.51176933 252.22015476 15.50958538 C251.29848218 15.51135963 250.37680959 15.51313388 249.42720753 15.5149619 C248.41303019 15.51184729 247.39885285 15.50873268 246.35394287 15.50552368 C244.73958608 15.50658056 244.73958608 15.50658056 243.09261602 15.50765878 C239.46774933 15.50897254 235.84292564 15.50328273 232.21806335 15.49778748 C229.62628682 15.49754545 227.0345102 15.49782223 224.44273376 15.49858093 C219.5762091 15.49970171 214.70969011 15.49905652 209.84316605 15.49638013 C200.27193898 15.49125316 190.70076455 15.49960831 181.12954712 15.51300049 C179.62236264 15.51504721 178.11517815 15.51708954 176.60799366 15.51912755 C173.55618089 15.52328383 170.5043682 15.52749901 167.45255554 15.53173506 C159.60404767 15.54254002 151.75553899 15.55234316 143.9070282 15.56077576 C143.11935951 15.56162701 142.33169083 15.56247826 141.5201534 15.5633553 C128.77320635 15.57655837 116.02632196 15.57156777 103.27937562 15.56070419 C90.18457525 15.55005842 77.08993045 15.56230395 63.99516577 15.59478647 C55.92364521 15.61402623 47.852541 15.61511988 39.78102701 15.59263019 C33.58491292 15.57720527 27.3892396 15.59331504 21.19317627 15.6209259 C18.65844106 15.62728196 16.12365603 15.6234623 13.58895683 15.60853004 C-5.74922405 15.1313441 -5.74922405 15.1313441 -22.26136684 24.12788677 C-23.88155836 25.77749911 -25.07667456 27.43198555 -26.30561829 29.38768005 C-26.7039386 29.97420349 -27.10225891 30.56072693 -27.51264954 31.1650238 C-31.89156025 38.97898109 -31.1283951 48.6771603 -31.30561829 57.38768005 C-29.99850891 57.28326599 -29.99850891 57.28326599 -28.66499329 57.17674255 C-18.68804528 56.72324492 -11.06014269 58.41048052 -3.36811829 65.0634613 C-1.81132806 66.75647067 -0.55532739 68.45932098 0.69438171 70.38768005 C1.10430359 70.94713318 1.51422546 71.5065863 1.93656921 72.08299255 C5.97452308 78.51587078 5.5965994 86.07740343 4.69438171 93.38768005 C3.48186795 97.08752443 1.85587408 100.16110449 -0.30561829 103.38768005 C-0.90374329 104.31580505 -1.50186829 105.24393005 -2.11811829 106.20018005 C-6.94187558 111.02393735 -12.57747474 114.15418707 -19.30561829 115.38768005 C-23.26561829 115.38768005 -27.22561829 115.38768005 -31.30561829 115.38768005 C-31.30561829 124.29768005 -31.30561829 133.20768005 -31.30561829 142.38768005 C-27.01561829 142.38768005 -22.72561829 142.38768005 -18.30561829 142.38768005 C-9.27828342 145.11687432 -3.11104256 148.83026033 1.56938171 157.13768005 C2.29300869 158.54659615 3.00435577 159.96200662 3.69438171 161.38768005 C4.02438171 162.04768005 4.35438171 162.70768005 4.69438171 163.38768005 C5.73180292 173.65683677 4.97393212 181.81293464 -1.30561829 190.38768005 C-6.16982639 195.41313263 -11.54535649 198.69761461 -18.30561829 200.38768005 C-22.59561829 200.38768005 -26.88561829 200.38768005 -31.30561829 200.38768005 C-31.30561829 209.29768005 -31.30561829 218.20768005 -31.30561829 227.38768005 C-27.01561829 227.38768005 -22.72561829 227.38768005 -18.30561829 227.38768005 C-9.03433768 230.19062535 -3.090343 234.12056594 2.13188171 242.32518005 C6.0966929 250.19068149 6.29967067 258.46479393 3.58110046 266.80174255 C-0.20611473 275.02949309 -4.78085299 279.93835653 -12.93061829 283.76268005 C-18.30561829 285.38768005 -18.30561829 285.38768005 -31.30561829 285.38768005 C-31.30561829 294.29768005 -31.30561829 303.20768005 -31.30561829 312.38768005 C-27.01561829 312.38768005 -22.72561829 312.38768005 -18.30561829 312.38768005 C-9.34361579 315.09712267 -3.15778159 318.81084971 1.56938171 327.01268005 C5.38434481 334.21310708 5.97223148 342.22516699 4.01078796 350.1493988 C0.61085575 359.36166327 -4.17434098 364.33138858 -13.03608704 368.44236755 C-19.95483491 371.3241868 -21.72501549 370.38768005 -31.30561829 370.38768005 C-31.30561829 379.29768005 -31.30561829 388.20768005 -31.30561829 397.38768005 C-27.01561829 397.38768005 -22.72561829 397.38768005 -18.30561829 397.38768005 C-8.8711572 400.45081677 -2.2471349 406.06307562 2.78422546 414.59080505 C5.92583033 420.79311509 5.58685106 428.53823397 4.04594421 435.18455505 C1.08700105 443.32797128 -3.65577509 449.33869987 -11.36811829 453.38768005 C-17.90497849 456.10985443 -24.34134628 455.84518697 -31.30561829 455.38768005 C-31.27980699 467.72547971 -31.08718835 478.44078053 -22.66889954 488.3056488 C-14.07576478 496.41804875 -4.45662046 496.96900382 6.87016296 496.92674255 C8.32746851 496.93666575 9.78476154 496.94861313 11.24203491 496.96247864 C15.05284527 496.99464904 18.86336839 497.00521684 22.67430115 497.00932312 C28.7901122 497.01812469 34.90569003 497.05361793 41.02130699 497.10149765 C43.15072847 497.11405425 45.27985088 497.11332837 47.40930176 497.11122131 C48.70132004 497.11818024 49.99333832 497.12513916 51.32450867 497.13230896 C53.0291906 497.13419724 53.0291906 497.13419724 54.76831055 497.13612366 C57.65859482 497.38460343 59.30179856 497.78415481 61.69438171 499.38768005 C63.26405722 502.15329881 63.73388718 503.83460353 63.50688171 507.01268005 C62.57640004 509.73254955 61.99944676 510.68472843 59.69438171 512.38768005 C56.72566223 512.78208923 56.72566223 512.78208923 53.04252625 512.80760193 C52.37046646 512.81607147 51.69840668 512.82454102 51.00598145 512.83326721 C48.77952702 512.85669673 46.55376277 512.85765693 44.32719421 512.85643005 C42.77078478 512.86353576 41.21437795 512.87123536 39.65797424 512.87950134 C36.38780973 512.89296527 33.11788653 512.89450987 29.84770203 512.88865662 C25.69079821 512.88280424 21.53508014 512.91315461 17.37840462 512.9537735 C14.15750579 512.97986529 10.93688271 512.98250786 7.71589279 512.97888184 C6.18592767 512.98055783 4.65594764 512.99005115 3.12608719 513.00802612 C-12.29475437 513.1690654 -23.9594819 509.29867244 -35.23530579 498.5478363 C-46.74560369 486.46943356 -47.65279365 472.10700897 -47.30561829 456.38768005 C-47.98366516 456.42248474 -48.66171204 456.45728943 -49.36030579 456.4931488 C-58.85082801 456.76918892 -66.94394234 455.35549857 -74.48139954 449.27049255 C-81.44095884 442.0873928 -83.66116426 434.36319244 -83.68623352 424.6493988 C-83.48778572 415.77808409 -80.38616089 410.06670697 -73.99311829 403.95018005 C-65.32223099 396.91396823 -58.37999837 397.06822678 -47.30561829 397.38768005 C-47.30561829 388.80768005 -47.30561829 380.22768005 -47.30561829 371.38768005 C-50.60561829 371.38768005 -53.90561829 371.38768005 -57.30561829 371.38768005 C-67.22702274 369.65537134 -74.53740058 364.58609118 -80.30561829 356.38768005 C-84.41477318 348.36093925 -84.9526277 339.03875236 -82.42671204 330.37205505 C-78.80188489 322.57209697 -73.09288865 316.31541229 -65.05952454 313.0322113 C-59.20888035 311.6629116 -53.26820656 312.17281201 -47.30561829 312.38768005 C-47.30561829 303.80768005 -47.30561829 295.22768005 -47.30561829 286.38768005 C-49.94561829 286.38768005 -52.58561829 286.38768005 -55.30561829 286.38768005 C-65.54133644 285.39088773 -72.0538363 281.26262493 -78.76264954 273.64549255 C-84.17024842 265.73260102 -84.25953575 257.58162744 -83.30561829 248.38768005 C-81.06001068 240.68275083 -76.05381571 234.1056709 -69.06733704 230.10643005 C-61.57151386 226.57898385 -55.74268718 226.38768005 -47.30561829 226.38768005 C-47.30561829 217.80768005 -47.30561829 209.22768005 -47.30561829 200.38768005 C-49.57436829 200.49080505 -51.84311829 200.59393005 -54.18061829 200.70018005 C-63.2849627 200.84012559 -69.4734651 198.20807819 -76.18061829 192.13768005 C-82.86204506 184.72966786 -84.19438174 177.04674824 -83.75874329 167.27830505 C-82.84925499 159.46925038 -79.41528619 153.36066555 -73.30561829 148.38768005 C-64.64481437 142.00407027 -58.35463319 141.38768005 -47.30561829 141.38768005 C-47.30561829 132.80768005 -47.30561829 124.22768005 -47.30561829 115.38768005 C-50.52311829 115.48049255 -50.52311829 115.48049255 -53.80561829 115.57518005 C-64.29873579 115.5119685 -69.48170607 113.1414418 -77.09468079 105.8212738 C-83.40658724 98.87371599 -84.1654608 91.40510354 -83.76264954 82.27830505 C-83.12124678 76.81815852 -81.3763414 72.89140728 -78.30561829 68.38768005 C-77.70749329 67.45955505 -77.10936829 66.53143005 -76.49311829 65.57518005 C-69.51884566 58.60090743 -61.96978507 56.29980233 -52.30561829 56.26268005 C-50.6387324 56.29438712 -48.97189381 56.33254594 -47.30561829 56.38768005 C-47.35782532 54.86400818 -47.35782532 54.86400818 -47.41108704 53.30955505 C-47.8120031 36.62371352 -44.3730835 24.08442151 -32.76264954 11.68455505 C-23.31473248 2.85247996 -12.63546096 -0.07433321 0 0 Z " fill="#000101" transform="translate(107.30561828613281,-0.3876800537109375)"/>
<path d="M0 0 C0.99011611 -0.00638882 1.98023222 -0.01277764 3.00035185 -0.01936007 C6.30390942 -0.0345685 9.60625976 -0.0141754 12.90977478 0.00622559 C15.28380734 0.00272319 17.65783755 -0.00293672 20.03186035 -0.0105896 C26.46982397 -0.02482912 32.90736006 -0.00778408 39.34528279 0.01569557 C45.40116168 0.03593914 51.45704314 0.03055788 57.51294654 0.02821773 C69.51215772 0.02453111 81.51120303 0.04532298 93.51036072 0.07946777 C105.1454945 0.11256426 116.78045425 0.1267244 128.41563416 0.1204834 C141.09664393 0.11371484 153.77758091 0.11619224 166.45857996 0.1358428 C167.46499526 0.13740203 167.46499526 0.13740203 168.49174218 0.13899276 C169.83916544 0.1410836 171.18658868 0.14319457 172.53401189 0.14532593 C177.2176175 0.1522124 181.90120064 0.15289237 186.58481026 0.15144348 C192.89104635 0.15056453 199.19707458 0.16478391 205.50325584 0.19067001 C207.81755694 0.19783177 210.13188015 0.1999154 212.44618988 0.19655228 C215.60522121 0.19283726 218.76364601 0.20758647 221.92260742 0.22705078 C222.83837006 0.22172286 223.7541327 0.21639493 224.69764572 0.21090555 C230.93422116 0.2772006 236.03574188 1.06156069 240.85874939 5.37536621 C241.32539001 5.97220215 241.79203064 6.56903809 242.27281189 7.18395996 C242.99597595 8.08308105 242.99597595 8.08308105 243.73374939 9.00036621 C245.83111839 11.92119888 246.02186958 13.75157405 246.01806641 17.30374146 C246.0201284 18.78454948 246.0201284 18.78454948 246.02223206 20.29527283 C246.01863678 21.38211868 246.0150415 22.46896454 246.01133728 23.58874512 C246.01148331 24.73020493 246.01162933 25.87166473 246.01177979 27.04771423 C246.01108095 30.83533605 246.00328987 34.6229092 245.99546814 38.41052246 C245.99360386 41.03083265 245.99218 43.65114319 245.99118042 46.27145386 C245.98806941 52.47273157 245.97985911 58.6739917 245.96983093 64.87526166 C245.95866267 71.9344216 245.95315754 78.99358236 245.9481355 86.05274892 C245.93767632 100.57566168 245.92008131 115.09856057 245.89781189 129.62145996 C244.77287761 128.66420626 243.6489256 127.70579815 242.52539062 126.74690247 C241.89938493 126.21331273 241.27337923 125.679723 240.62840366 125.12996387 C238.71286269 123.4602454 236.94291837 121.70662399 235.20640564 119.85192871 C223.45009672 107.5400372 212.35545274 98.86733298 195.89781189 93.62145996 C194.96968689 93.30306152 194.04156189 92.98466309 193.08531189 92.65661621 C176.51035019 87.66110692 158.4098445 90.22576532 142.71031189 96.80895996 C142.09325378 97.06363037 141.47619568 97.31830078 140.84043884 97.58068848 C128.0500479 103.31211284 118.75129797 113.48857008 109.276474 123.4552002 C107.65175125 125.15795504 106.01223717 126.84531659 104.37046814 128.53161621 C103.8787764 129.05852554 103.38708466 129.58543488 102.88049316 130.12831116 C101.47227478 131.5670166 101.47227478 131.5670166 98.89781189 133.62145996 C95.06671043 133.48141297 92.33038491 131.03132019 89.21031189 128.93395996 C84.0412177 125.60645898 78.82292024 123.21168139 73.02281189 121.18395996 C72.32196472 120.93750732 71.62111755 120.69105469 70.89903259 120.43713379 C51.73975353 114.03705636 30.45904195 116.69017237 12.58531189 125.37145996 C1.05322945 131.32522006 -7.45795109 139.77887597 -16.47889709 148.98254395 C-17.54732849 150.07224487 -17.54732849 150.07224487 -18.63734436 151.18395996 C-19.28066711 151.84524902 -19.92398987 152.50653809 -20.58680725 153.18786621 C-22.10218811 154.62145996 -22.10218811 154.62145996 -23.10218811 154.62145996 C-23.21909959 136.37557409 -23.30721443 118.12978571 -23.36124897 99.88360596 C-23.38700742 91.41116804 -23.42211254 82.93896314 -23.47938538 74.4666748 C-23.52929294 67.08038645 -23.56149628 59.69426689 -23.57263058 52.3078146 C-23.579137 48.39830562 -23.59437883 44.48927945 -23.63083839 40.57992554 C-23.66491469 36.89607984 -23.67521803 33.21291329 -23.66772652 29.52892494 C-23.66974619 27.54081662 -23.69658036 25.55278136 -23.72428894 23.56486511 C-23.68229447 16.24905862 -23.17575379 11.09322178 -18.10218811 5.62145996 C-12.33857664 0.80176255 -7.35452706 -0.10077683 0 0 Z " fill="#F4DE5E" transform="translate(181.10218811035156,142.3785400390625)"/>
<path d="M0 0 C1.51777419 1.3550057 3.01294225 2.73562853 4.48828125 4.13671875 C8.26623563 7.62538136 12.09755171 10.39609693 16.4453125 13.1328125 C25.45087909 19.31571163 33.41820074 26.29773636 35.70471191 37.43145752 C36.9432242 47.15876362 36.96431157 56.89754619 36.75 66.6875 C36.73536964 67.40783669 36.72073929 68.12817337 36.70566559 68.87033844 C36.5418545 76.23134892 36.23131544 83.58583477 35.73730469 90.93237305 C35.63418976 92.47806221 35.63418976 92.47806221 35.5289917 94.05497742 C34.45917331 100.01091081 31.59261213 104.15502241 27 108 C22.17029817 110.06196069 17.66947024 110.27914138 12.49588013 110.24050903 C11.23249795 110.24307231 11.23249795 110.24307231 9.94359291 110.24568737 C7.12913739 110.24897438 4.31492174 110.23799156 1.50048828 110.22705078 C-0.52007542 110.2264865 -2.54063954 110.22680356 -4.561203 110.22793579 C-10.04211382 110.22850963 -15.5229371 110.21675017 -21.00382757 110.20278788 C-26.73335164 110.1902858 -32.46287772 110.18911043 -38.19241333 110.18673706 C-49.04014365 110.18052076 -59.88783366 110.16410789 -70.73554623 110.14403808 C-83.08610981 110.12168377 -95.43667532 110.11068682 -107.7872541 110.10064721 C-133.19152508 110.07974182 -158.59576028 110.04456289 -184 110 C-180.62527586 106.00215235 -177.21913232 102.09367655 -173.53160095 98.37770081 C-172.27266525 97.10586441 -172.27266525 97.10586441 -170.98829651 95.80833435 C-170.08586716 94.90164505 -169.18343781 93.99495575 -168.25366211 93.06079102 C-167.2786372 92.07784739 -166.30378863 91.09472883 -165.32910156 90.1114502 C-162.14889609 86.90523551 -158.96343022 83.70427536 -155.77734375 80.50390625 C-154.67374255 79.39493723 -153.57014621 78.28596338 -152.46655464 77.17698479 C-147.8713917 72.5602267 -143.27479807 67.9449009 -138.67447567 63.33328342 C-132.11663136 56.75922191 -125.56740825 50.17683593 -119.03002161 43.58242851 C-114.41268422 38.92621635 -109.7856376 34.2797922 -105.15145689 29.64034408 C-102.39332968 26.87858826 -99.63942423 24.11292868 -96.89588737 21.33667183 C-94.31067436 18.72106638 -91.71346311 16.11796451 -89.10718536 13.52335358 C-87.71651039 12.13299944 -86.33813707 10.73037331 -84.96040344 9.32719421 C-61.53437552 -13.87198581 -27.76246722 -19.55552436 0 0 Z " fill="#C9A387" transform="translate(392,259)"/>
<path d="M0 0 C1.2422937 -0.01253311 2.4845874 -0.02506622 3.76452637 -0.03797913 C5.11972083 -0.02569993 6.47490535 -0.01227828 7.83007812 0.00219727 C9.23051131 0.00136765 10.6309444 -0.00109523 12.03137207 -0.00511169 C14.9704309 -0.00797056 17.9087282 0.00672293 20.84765625 0.03417969 C24.5819806 0.06801241 28.31492126 0.06233052 32.04930878 0.04351711 C34.94595465 0.032843 37.84228971 0.0419821 40.73890686 0.05690193 C42.11335826 0.06202552 43.48784299 0.0616741 44.86228943 0.05535698 C59.07066909 0.01461637 70.12881364 3.10393297 80.86132812 12.63110352 C90.08328618 21.83732445 94.53255697 33.27194929 94.98782796 46.23218417 C94.98888459 48.16949653 94.98888459 48.16949653 94.98996258 50.1459465 C94.99171562 50.87335179 94.99346865 51.60075707 94.99527481 52.35020494 C94.9999191 54.78262251 94.99747337 57.21497989 94.99504089 59.6473999 C94.99690966 61.41101672 94.99921062 63.17463312 95.00190622 64.93824887 C95.00802254 69.78107499 95.00789082 74.62388385 95.00671184 79.46671295 C95.00650779 84.69111904 95.012027 89.91551959 95.01676941 95.1399231 C95.02507564 105.37430867 95.02782424 115.60868849 95.02838179 125.84307715 C95.02885697 134.1623254 95.03091181 142.48157175 95.03408241 150.8008194 C95.04288897 174.38820318 95.04750179 197.97558242 95.04675194 221.56296787 C95.046692 223.47034736 95.046692 223.47034736 95.04663086 225.41625977 C95.04658998 226.68939896 95.0465491 227.96253816 95.04650698 229.27425733 C95.04610052 249.90754138 95.05566993 270.54080718 95.06976923 291.17408594 C95.08413255 312.36096447 95.09103943 333.54783409 95.09017545 354.73471761 C95.08984346 366.62921116 95.09259134 378.52368558 95.1033535 390.41817474 C95.11245792 400.54540879 95.11463422 410.67261502 95.10784408 420.79985139 C95.10457857 425.96571197 95.10452333 431.13151921 95.11319733 436.29737473 C95.12106183 441.02985188 95.11963135 445.76223339 95.11091319 450.49470821 C95.10937811 452.20329754 95.1111947 453.911894 95.11677327 455.6204749 C95.16909225 472.78660812 93.52912413 487.57547381 81.12304688 500.59594727 C70.91192342 509.7841948 60.21830128 513.09815094 46.70120239 513.0255127 C45.08165801 513.03464935 45.08165801 513.03464935 43.42939556 513.04397058 C39.83514566 513.06053312 36.24125264 513.05583443 32.64697266 513.05102539 C30.06088393 513.05836923 27.47479848 513.06695637 24.88871765 513.07669067 C18.60949729 513.09767358 12.33036939 513.10228989 6.05111809 513.10050279 C0.94888134 513.09919261 -4.15332667 513.1030123 -9.25555801 513.11042786 C-10.72788624 513.11252711 -12.20021446 513.11462471 -13.67254269 513.11672068 C-14.77186191 513.11828597 -14.77186191 513.11828597 -15.8933896 513.11988288 C-29.7296669 513.13875327 -43.56589109 513.13774367 -57.40217592 513.13091356 C-70.06361295 513.12532906 -82.72484823 513.14620765 -95.38623808 513.17927402 C-108.39529416 513.2129845 -121.40425345 513.22818344 -134.41335404 513.223557 C-141.71393629 513.22131109 -149.01433163 513.22657436 -156.31487656 513.25144958 C-163.17192343 513.27461603 -170.02854136 513.27191282 -176.88559532 513.25152206 C-179.40596657 513.24809723 -181.92636581 513.2532639 -184.44669914 513.26750565 C-187.8784489 513.28556492 -191.308744 513.27304727 -194.740448 513.25256348 C-195.74529484 513.26508132 -196.75014168 513.27759917 -197.78543842 513.29049635 C-204.47284788 513.20449076 -204.47284788 513.20449076 -207.82371712 510.31882477 C-209.13867188 507.63110352 -209.13867188 507.63110352 -208.57617188 504.00610352 C-207.26916665 500.93748255 -206.67875697 499.61035962 -204.13867188 497.63110352 C-202.11686748 497.25669867 -202.11686748 497.25669867 -199.75256252 497.25751591 C-198.85055691 497.25052616 -197.9485513 497.24353642 -197.01921219 497.23633486 C-196.0270163 497.24391092 -195.03482041 497.25148697 -194.01255798 497.2592926 C-192.43283647 497.25355576 -192.43283647 497.25355576 -190.82120138 497.24770302 C-187.27446696 497.23838014 -183.72811905 497.25043361 -180.18139648 497.26220703 C-177.64548581 497.25974038 -175.10957616 497.25590335 -172.57366943 497.25079346 C-167.1028717 497.24243876 -161.63218632 497.24297333 -156.1613903 497.25097847 C-148.24062526 497.26220345 -140.31997981 497.25317416 -132.39922518 497.23841666 C-119.53446273 497.21462855 -106.66971502 497.20127723 -93.80493164 497.19726562 C-93.03468202 497.19702076 -92.26443241 497.19677589 -91.47084189 497.1965236 C-82.88489854 497.19397982 -74.29895632 497.19340969 -65.7130127 497.19445801 C-62.60367839 497.194791 -59.49434408 497.19507641 -56.38500977 497.1953125 C-55.61782011 497.19537529 -54.85063046 497.19543808 -54.06019264 497.19550277 C-41.25245674 497.19610829 -28.44478878 497.18119549 -15.63708121 497.15447944 C-7.74066729 497.13869467 0.15552695 497.13639498 8.05194312 497.15161347 C14.11042082 497.16222333 20.16868794 497.15235721 26.22715759 497.13505554 C28.70790992 497.13133158 31.1886835 497.13443076 33.66941643 497.14492607 C37.06203864 497.15832043 40.453743 497.14706574 43.84632874 497.12989807 C44.82290957 497.13970485 45.79949041 497.14951162 46.8056646 497.15961558 C54.64809102 497.07782603 61.83140282 495.17362625 68.17382812 490.38110352 C75.04702781 483.34806197 78.10672264 476.00424776 78.12139034 466.12719345 C78.12519601 465.3888238 78.12900168 464.65045414 78.13292268 463.88970965 C78.1432344 461.41393027 78.13933309 458.93838034 78.13548279 456.46258545 C78.13993541 454.67024361 78.14524954 452.87790374 78.15135151 451.08556676 C78.16553888 446.15872923 78.16719466 441.23195476 78.1667546 436.30509973 C78.16840215 430.99206756 78.18146744 425.67906142 78.19294739 420.36604309 C78.21580076 408.74832923 78.22371826 397.13063364 78.22877383 385.51290035 C78.23203024 378.25928157 78.23855235 371.00566809 78.24577522 363.75205231 C78.26534102 343.66989182 78.28174554 323.58773627 78.28465176 303.50556564 C78.28493311 301.57778882 78.28493311 301.57778882 78.28522015 299.61106701 C78.2855864 297.00567611 78.2859501 294.40028521 78.28631126 291.79489431 C78.28649407 290.50157089 78.28667688 289.20824746 78.28686523 287.87573242 C78.28704578 286.58083111 78.28722633 285.2859298 78.28741235 283.95178905 C78.29095472 262.96530197 78.31798112 241.97891745 78.35536312 220.99246594 C78.39343317 199.44740577 78.41280913 177.90239651 78.41311127 156.35730195 C78.4136961 144.25989634 78.4222052 132.16261309 78.45110893 120.06523895 C78.47560525 109.76517036 78.4829174 99.46526877 78.46786141 89.16517892 C78.46068562 83.91023468 78.46157911 78.65562035 78.484272 73.40071297 C78.50485661 68.58789924 78.50226628 63.77566918 78.48139716 58.96286181 C78.47790132 57.223974 78.48281628 55.48504413 78.4971016 53.7462115 C78.569045 44.38401318 78.30801696 36.65728852 72.86132812 28.63110352 C72.26320313 27.70297852 71.66507812 26.77485352 71.04882812 25.81860352 C63.25475837 18.02453376 54.84707413 16.41823832 44.17536926 16.35464478 C42.9334935 16.35564178 41.69161774 16.35663879 40.41210938 16.35766602 C38.44106024 16.3425728 36.47001095 16.32745679 34.49897289 16.31097984 C29.66139512 16.27329895 24.82379685 16.25603088 19.98608398 16.25024414 C17.26155118 16.24620117 14.5374476 16.23165981 11.81303406 16.2059021 C9.25227022 16.18244313 6.69129775 16.17510177 4.13044739 16.18545532 C2.97211899 16.17219208 1.81379059 16.15892883 0.62036133 16.14526367 C-0.39777145 16.14241364 -1.41590424 16.1395636 -2.46488953 16.1366272 C-5.85821385 15.49506196 -7.02080507 14.30736862 -9.13867188 11.63110352 C-10.13867188 8.69360352 -10.13867188 8.69360352 -10.13867188 5.63110352 C-7.28722607 0.9526575 -5.41568793 0.00477032 0 0 Z " fill="#000101" transform="translate(394.138671875,-0.631103515625)"/>
<path d="M0 0 C1.59698278 0.02009803 3.19399002 0.03834295 4.79101562 0.0546875 C8.67378881 0.09841735 12.55537022 0.1672593 16.4375 0.25 C16.0355542 0.71035645 15.6336084 1.17071289 15.21948242 1.64501953 C4.1574274 14.41214701 1.98660962 25.09142631 2.05654907 41.70335388 C2.05309006 43.49003592 2.04832385 45.27671581 2.04236734 47.06339127 C2.02986114 51.96069079 2.03602606 56.85781458 2.04532599 61.75511467 C2.05211772 67.04150774 2.0416346 72.32787073 2.03338623 77.61425781 C2.02004778 87.96569731 2.02292724 98.31707154 2.03162415 108.66851359 C2.0384002 117.08212081 2.03931775 125.49570975 2.0360527 133.90931892 C2.035593 135.1069437 2.03513331 136.30456848 2.03465968 137.53848492 C2.0337005 139.97147481 2.03272786 142.40446469 2.0317419 144.83745456 C2.02318758 167.650942 2.03302262 190.46439327 2.049143 213.27787478 C2.0625445 232.84941185 2.06021955 252.42089553 2.04638672 271.99243164 C2.03032871 294.72292286 2.02401337 317.45338238 2.03322351 340.18387848 C2.03417915 342.60820742 2.03512226 345.03253636 2.0360527 347.45686531 C2.03651553 348.64966305 2.03697836 349.84246078 2.03745521 351.0714039 C2.04004456 359.47359441 2.03567524 367.8757648 2.02861404 376.27795219 C2.02019633 386.51936862 2.02248488 396.76071607 2.03845628 407.0021246 C2.04633554 412.22662705 2.0494364 417.45101455 2.03950882 422.67551613 C2.03055431 427.46033756 2.03550736 432.24493772 2.05144148 437.02973915 C2.05478608 438.75843655 2.05310244 440.48715273 2.04581411 442.21583801 C1.99183767 456.08471225 3.21202993 467.69609948 13.1875 478.125 C13.93 478.82625 14.6725 479.5275 15.4375 480.25 C15.7675 480.91 16.0975 481.57 16.4375 482.25 C11.81524339 482.40017328 7.19445594 482.50805297 2.5703125 482.57958984 C1.00300312 482.60945865 -0.56414365 482.65017088 -2.13085938 482.70263672 C-13.52240107 483.07410003 -22.82012531 482.24840896 -31.78393555 474.27368164 C-33.62275007 472.37529811 -35.09279615 470.44432106 -36.5625 468.25 C-36.99433594 467.6415625 -37.42617187 467.033125 -37.87109375 466.40625 C-42.31140127 458.66259952 -40.87765947 448.85560441 -40.5625 440.25 C-39.69109375 440.24742187 -38.8196875 440.24484375 -37.921875 440.2421875 C-28.09048684 439.92298659 -18.58229387 437.98920258 -11.5625 430.5 C-6.33278579 422.00171441 -4.17921208 414.2911882 -5.5625 404.25 C-8.06474889 395.72069971 -13.89738316 389.60021283 -21.46484375 385.125 C-27.65706943 382.40199167 -33.65533917 382.78132006 -40.5625 382.25 C-40.5625 373.34 -40.5625 364.43 -40.5625 355.25 C-36.2725 354.92 -31.9825 354.59 -27.5625 354.25 C-18.00882235 351.17525317 -12.32819861 347.36912006 -7.54296875 338.43359375 C-4.2467893 331.09270007 -4.44652432 322.3358627 -7.25 314.875 C-11.13986486 306.4626625 -16.22096359 302.79868752 -24.5625 299.25 C-29.66151951 297.55032683 -35.20349317 297.66223129 -40.5625 297.25 C-40.5625 288.34 -40.5625 279.43 -40.5625 270.25 C-36.2725 269.92 -31.9825 269.59 -27.5625 269.25 C-18.49867946 266.33290833 -12.97327657 263.17776586 -8.1875 254.875 C-4.44091407 246.81686678 -3.77425132 238.5369961 -6.640625 230.0625 C-10.38395451 222.49357001 -15.59187403 217.83932017 -23.25 214.4375 C-28.91428351 212.73026874 -28.91428351 212.73026874 -40.5625 212.25 C-40.5625 203.34 -40.5625 194.43 -40.5625 185.25 C-36.2725 184.92 -31.9825 184.59 -27.5625 184.25 C-18.49867946 181.33290833 -12.97327657 178.17776586 -8.1875 169.875 C-4.59288608 162.21279664 -3.90492797 153.90679343 -6.30078125 145.73046875 C-7.23220714 143.72579493 -8.26406716 142.03534515 -9.5625 140.25 C-10.284375 139.198125 -11.00625 138.14625 -11.75 137.0625 C-20.2333336 128.5791664 -28.60894232 128.16950444 -40.5625 127.25 C-40.5625 118.34 -40.5625 109.43 -40.5625 100.25 C-38.0875 100.0025 -35.6125 99.755 -33.0625 99.5 C-24.08493771 98.45332515 -17.70520066 96.41648411 -11.5625 89.25 C-5.43446625 80.84583943 -4.56047344 73.41639447 -5.5625 63.25 C-7.90120723 55.25245654 -12.5942345 50.33409295 -19.51953125 46.03515625 C-26.18284814 42.56133056 -33.16868094 42.46035047 -40.5625 42.25 C-41.28000339 29.54753253 -41.52202528 19.24542947 -32.69921875 9.109375 C-30.69950631 7.20183368 -28.91542712 5.70965107 -26.5625 4.25 C-26.01811279 3.8984082 -25.47372559 3.54681641 -24.9128418 3.18457031 C-17.16364564 -1.07180552 -8.55754728 -0.18790264 0 0 Z " fill="#72A6D1" transform="translate(116.5625,14.75)"/>
<path d="M0 0 C0.95567871 0.00572021 1.91135742 0.01144043 2.89599609 0.01733398 C16.71851298 0.36098772 27.87814643 4.94430268 39.375 12.5 C38.78703209 15.86163881 37.72418694 17.54340746 35.36326599 19.98016357 C34.39881058 20.98548882 34.39881058 20.98548882 33.41487122 22.01112366 C32.70489487 22.7354509 31.99491852 23.45977814 31.26342773 24.20605469 C30.51845032 24.97717087 29.7734729 25.74828705 29.00592041 26.54277039 C26.53302463 29.09530139 24.04765851 31.6351123 21.55859375 34.171875 C20.7079088 35.03977913 19.85722385 35.90768326 18.98076057 36.80188751 C14.47264114 41.39606521 9.95314677 45.97875015 5.42602539 50.55419922 C1.68761135 54.33705435 -2.02614031 58.1412193 -5.72045898 61.96728516 C-10.18592866 66.59192535 -14.68973863 71.17571967 -19.22352409 75.73337555 C-20.94074839 77.4725329 -22.64433777 79.22526833 -24.33340645 80.99178314 C-38.95881024 96.2493522 -38.95881024 96.2493522 -47.39372921 96.75427628 C-54.02877958 96.57226239 -59.91285837 95.3464939 -64.625 90.5 C-71.19838199 83.54170639 -71.42908747 73.88509877 -71.75 64.8125 C-71.78091736 63.97717743 -71.81183472 63.14185486 -71.84368896 62.28121948 C-72.04020555 50.47006497 -69.68686285 42.54973828 -61.65011597 33.77775574 C-45.1327384 16.89534672 -24.70516313 -0.17416633 0 0 Z " fill="#AA886F" transform="translate(227.625,273.5)"/>
<path d="M0 0 C7.0886398 5.54763115 12.26589148 13.05200004 14 22 C14.98869972 31.85458078 12.9587235 41.18625728 7.25 49.375 C0.82353111 57.11889501 -7.57731575 62.32753947 -17.65625 63.3828125 C-25.36477156 63.61406815 -31.37649935 63.03291372 -38 59 C-39.546875 58.13375 -39.546875 58.13375 -41.125 57.25 C-49.59847908 50.61858159 -55.07929165 42.30105568 -56.4453125 31.46875 C-56.8115643 20.23702804 -53.68030911 11.24790701 -46 3 C-33.34533265 -8.79853763 -14.0863661 -9.95833736 0 0 Z " fill="#030301" transform="translate(266,170)"/>
<path d="M0 0 C0.82072998 -0.0038269 1.64145996 -0.00765381 2.48706055 -0.01159668 C4.21501906 -0.01430765 5.94301917 -0.00700364 7.67089844 0.00976562 C10.3049735 0.03118879 12.93632154 0.00993818 15.5703125 -0.015625 C17.25521431 -0.01298158 18.94011443 -0.00785629 20.625 0 C21.79712036 -0.01214539 21.79712036 -0.01214539 22.99291992 -0.02453613 C29.4253389 0.0849206 32.94731436 2.35278955 37.6875 6.71875 C39.98950703 10.70299293 39.97089156 14.03356306 39.3125 18.53125 C37.75642346 22.73265665 36.18200532 25.23373122 32.3125 27.53125 C26.22835607 29.55929798 19.1935242 28.87952257 12.80810547 28.9362793 C10.98467044 28.95784402 9.16133851 28.99192919 7.33837891 29.03881836 C4.6990778 29.10603275 2.06191276 29.13331089 -0.578125 29.15234375 C-1.38566223 29.18017441 -2.19319946 29.20800507 -3.02520752 29.23667908 C-8.4697786 29.21707612 -11.29293127 27.91193169 -15.28118896 24.21253967 C-18.34990788 20.54378839 -19.14356527 17.38206959 -19 12.5546875 C-18.28840259 7.94709428 -15.55743139 5.24532412 -12.08203125 2.39257812 C-7.82863018 0.06030469 -4.76201307 -0.04934347 0 0 Z " fill="#484F58" transform="translate(57.6875,411.46875)"/>
<path d="M0 0 C1.20135841 0.00137466 1.20135841 0.00137466 2.42698669 0.0027771 C4.11211104 0.00879302 5.79722571 0.0244784 7.48217773 0.04931641 C10.05427651 0.08587613 12.62493376 0.09033498 15.19726562 0.08984375 C16.83985613 0.09967453 18.48243694 0.11133136 20.125 0.125 C20.88970108 0.12722565 21.65440216 0.12945129 22.442276 0.13174438 C27.44582099 0.22029033 31.30800343 0.74748716 35.296875 3.87109375 C38.25009582 7.09903279 39.91554897 9.50746719 40.12109375 13.9609375 C39.772175 18.71596972 38.3238855 21.6395973 35.49609375 25.4609375 C31.07793295 28.98073378 27.09401151 28.91416337 21.6875 28.89453125 C20.42098854 28.90239403 20.42098854 28.90239403 19.12889099 28.91041565 C17.34790137 28.91682249 15.56686937 28.91551619 13.78588867 28.90698242 C11.07068011 28.89847537 8.35757893 28.92724581 5.64257812 28.95898438 C3.90755271 28.96059673 2.17252359 28.9600182 0.4375 28.95703125 C-0.77213661 28.97388222 -0.77213661 28.97388222 -2.00621033 28.99107361 C-7.30420442 28.92603949 -10.28915596 27.94534829 -14.50390625 24.4609375 C-17.89480991 20.534628 -19.17854035 17.51121303 -18.88671875 12.4140625 C-17.99347105 7.85667629 -15.37207413 5.17189726 -11.88696289 2.31787109 C-7.67288534 0.00479656 -4.71283965 -0.0888035 0 0 Z " fill="#484F58" transform="translate(57.50390625,241.5390625)"/>
<path d="M0 0 C1.26295395 -0.00574036 1.26295395 -0.00574036 2.55142212 -0.01159668 C4.32823892 -0.01431192 6.10509595 -0.00697785 7.88183594 0.00976562 C10.58620519 0.03112869 13.28790192 0.00998003 15.9921875 -0.015625 C17.72396415 -0.01298061 19.45573914 -0.00785332 21.1875 0 C22.38939468 -0.01214539 22.38939468 -0.01214539 23.61557007 -0.02453613 C29.2648435 0.06867908 32.55978946 1.31916209 37.2265625 4.53125 C40.47773464 8.20192823 40.69204225 11.65910699 40.51171875 16.38671875 C39.92843005 20.77336937 37.90220183 22.93800571 34.6640625 25.78125 C30.41651698 28.83076986 27.02048895 28.72264515 21.9296875 28.76953125 C21.10329773 28.777603 20.27690796 28.78567474 19.42547607 28.79399109 C17.67364602 28.80783371 15.92178898 28.81855507 14.16992188 28.82641602 C11.50077554 28.84359417 8.83287919 28.88747289 6.1640625 28.93164062 C4.4609466 28.94177082 2.75782017 28.9502859 1.0546875 28.95703125 C0.26072571 28.97453934 -0.53323608 28.99204742 -1.35125732 29.01008606 C-6.63136918 28.98959563 -9.5610019 27.98848246 -13.7734375 24.53125 C-16.66969785 21.23550546 -17.67004048 18.62725845 -18.0859375 14.21875 C-17.63303549 8.87450629 -15.34902729 6.14170609 -11.67724609 2.38867188 C-7.71254958 -0.14734722 -4.61347317 -0.0463857 0 0 Z " fill="#484F58" transform="translate(56.7734375,71.46875)"/>
<path d="M0 0 C1.22753746 -0.00574036 1.22753746 -0.00574036 2.47987366 -0.01159668 C4.20363603 -0.01430792 5.9274401 -0.00700203 7.65112305 0.00976562 C10.27421883 0.03116079 12.89456756 0.00995335 15.51757812 -0.015625 C17.19922474 -0.01298104 18.88086965 -0.00785466 20.5625 0 C21.72687843 -0.01214539 21.72687843 -0.01214539 22.91477966 -0.02453613 C28.4862007 0.07027916 31.739618 1.37597244 36.34765625 4.53125 C39.54629359 8.14261473 39.87418236 11.58382975 39.6953125 16.25 C39.09577952 20.18401419 37.77222795 22.34102407 35.34765625 25.53125 C30.45710249 28.65030004 26.48851359 28.97453758 20.87890625 28.9296875 C20.08037231 28.93255768 19.28183838 28.93542786 18.45910645 28.93838501 C16.77823168 28.94041783 15.09733283 28.93494289 13.41650391 28.92236328 C10.85525214 28.90629765 8.29557815 28.92223778 5.734375 28.94140625 C4.09504863 28.93942368 2.45572323 28.93557971 0.81640625 28.9296875 C-0.32290344 28.93879654 -0.32290344 28.93879654 -1.48522949 28.9480896 C-6.25691568 28.88550071 -9.50371476 28.12530498 -13.65234375 25.53125 C-17.5491316 21.21318778 -19.02601501 18.53308744 -18.9296875 12.625 C-18.31313878 7.97049137 -15.53778879 5.25744591 -12.04467773 2.39257812 C-7.80108662 0.06417664 -4.75122828 -0.04943016 0 0 Z " fill="#484F58" transform="translate(57.65234375,326.46875)"/>
<path d="M0 0 C0.8004071 -0.00807175 1.60081421 -0.01614349 2.42547607 -0.02445984 C4.12005457 -0.03828476 5.81466073 -0.04901403 7.50927734 -0.05688477 C9.23559777 -0.06839357 10.96188293 -0.0888281 12.68798828 -0.1184082 C15.18807044 -0.16124898 17.68709554 -0.17727708 20.1875 -0.1875 C21.33318451 -0.21376213 21.33318451 -0.21376213 22.50201416 -0.24055481 C28.06602962 -0.21827328 31.26019647 1.08646551 35.859375 4.23828125 C39.11054714 7.90895948 39.32485475 11.36613824 39.14453125 16.09375 C38.56514996 20.45101475 36.54023119 22.62551068 33.359375 25.48828125 C28.95804311 28.56921357 24.86251759 28.42720096 19.68359375 28.4765625 C18.88081497 28.48463425 18.07803619 28.49270599 17.25093079 28.50102234 C15.55215605 28.51484575 13.85335375 28.5255757 12.15454102 28.53344727 C9.56667992 28.5506496 6.98010041 28.59454817 4.39257812 28.63867188 C2.7395927 28.64880047 1.08659644 28.65731606 -0.56640625 28.6640625 C-1.33535721 28.68157059 -2.10430817 28.69907867 -2.89656067 28.71711731 C-8.10419659 28.69626509 -10.9922284 27.64468821 -15.140625 24.23828125 C-18.5331197 20.31012949 -19.80411206 17.29198604 -19.53125 12.1953125 C-18.69123975 7.98686116 -16.21930937 5.186216 -13.078125 2.42578125 C-8.89144343 -0.14024939 -4.74766365 0.045435 0 0 Z " fill="#484F58" transform="translate(58.140625,156.76171875)"/>
<path d="M0 0 C5.00622278 2.67516561 8.31271689 6.76340296 11.07421875 11.62890625 C12.70361153 17.99835074 12.39767436 23.66225947 9.17578125 29.45703125 C6.21357327 33.35208925 2.11124467 36.14164329 -2.23828125 38.31640625 C-9.22558094 39.06888468 -14.84615541 38.99551346 -20.62109375 34.7421875 C-25.0138714 30.86932797 -27.83467735 26.90603484 -28.49609375 21.0234375 C-28.76424885 15.11508673 -28.09371557 10.89822674 -24.23828125 6.31640625 C-17.2054942 -0.60673824 -9.94986578 -3.03878972 0 0 Z " fill="#E88995" transform="translate(253.23828125,179.68359375)"/>
<path d="M0 0 C3.31362287 0.83144017 5.29246463 2.76895358 7.6875 5.125 C10.76944561 8.13197936 13.72424951 7.73251621 17.8828125 7.78515625 C19.70039063 7.82382813 19.70039063 7.82382813 21.5546875 7.86328125 C26.59432426 7.40113115 29.83411838 5.70065097 33.5703125 2.34765625 C36.99559617 -0.07510537 39.02324929 -0.0625984 43.1328125 0.53515625 C45.5703125 2.16015625 45.5703125 2.16015625 47.1328125 4.53515625 C47.73730879 8.08657197 47.49475667 9.87707594 45.7578125 13.03515625 C38.2106659 20.22291492 28.61142861 24.4625463 18.1953125 24.97265625 C9.06416718 24.64296026 0.74172597 20.76998028 -5.8671875 14.53515625 C-8.04549396 11.96535692 -8.8169247 10.93725868 -9.2421875 7.53515625 C-8.4906665 1.52298829 -6.19922103 -0.26306658 0 0 Z " fill="#030406" transform="translate(273.8671875,71.46484375)"/>
<path d="M0 0 C3.33791046 1.03148481 4.2953721 2.63494804 6.03515625 5.62890625 C6.60593088 8.8110392 6.59442585 11.90365214 6.53515625 15.12890625 C6.550625 15.97066406 6.56609375 16.81242187 6.58203125 17.6796875 C6.55611401 21.79404989 6.37236919 24.07710325 4.1875 27.65234375 C1.38677337 30.2243359 -0.16160795 30.78414036 -3.96484375 30.62890625 C-6.9308032 28.56884925 -8.70972397 26.94515231 -9.41381836 23.3125 C-9.56631644 20.54747586 -9.54819928 17.83418868 -9.46484375 15.06640625 C-9.46742188 14.12087891 -9.47 13.17535156 -9.47265625 12.20117188 C-9.36465234 4.55989509 -8.67372347 0.2841104 0 0 Z " fill="#030506" transform="translate(377.96484375,57.37109375)"/>
<path d="M0 0 C2.1875 1.41015625 2.1875 1.41015625 4 4 C4.59601371 7.32163028 4.55799724 10.5712434 4.5 13.9375 C4.51546875 14.83146484 4.5309375 15.72542969 4.546875 16.64648438 C4.52187634 20.85563359 4.35092578 23.38915777 2.22265625 27.09375 C-0.13406487 29.11498006 -1.01160238 29.66243306 -4.0625 29.5625 C-8 29 -8 29 -9.71899414 27.26757812 C-11.99188172 23.24421624 -11.47122268 19.01883883 -11.4375 14.5 C-11.45748047 13.54996094 -11.47746094 12.59992188 -11.49804688 11.62109375 C-11.49319085 4.71581911 -11.49319085 4.71581911 -9.19140625 1.375 C-5.9541782 -0.65620191 -3.73734177 -0.53390597 0 0 Z " fill="#020304" transform="translate(213,58)"/>
</svg>
